<?xml version="1.0" encoding="UTF-8" standalone="no"?>
<!-- Created with Inkscape (http://www.inkscape.org/) -->

<svg
   xmlns:dc="http://purl.org/dc/elements/1.1/"
   xmlns:cc="http://creativecommons.org/ns#"
   xmlns:rdf="http://www.w3.org/1999/02/22-rdf-syntax-ns#"
   xmlns:svg="http://www.w3.org/2000/svg"
   xmlns="http://www.w3.org/2000/svg"
   xmlns:sodipodi="http://sodipodi.sourceforge.net/DTD/sodipodi-0.dtd"
   xmlns:inkscape="http://www.inkscape.org/namespaces/inkscape"
   width="160"
   height="513"
   viewBox="0 0 42.333331 135.73124"
   version="1.1"
   id="svg3876"
   sodipodi:docname="beer-full-160-513.svg"
   inkscape:version="0.92.3 (2405546, 2018-03-11)">
  <defs
     id="defs3870" />
  <sodipodi:namedview
     id="base"
     pagecolor="#ffffff"
     bordercolor="#666666"
     borderopacity="1.0"
     inkscape:pageopacity="0.0"
     inkscape:pageshadow="2"
     inkscape:zoom="0.98994949"
     inkscape:cx="195.89148"
     inkscape:cy="114.58409"
     inkscape:document-units="mm"
     inkscape:current-layer="layer1"
     showgrid="true"
     units="px"
     inkscape:window-width="1920"
     inkscape:window-height="1017"
     inkscape:window-x="-8"
     inkscape:window-y="-8"
     inkscape:window-maximized="1">
    <inkscape:grid
       type="xygrid"
       id="grid3936" />
  </sodipodi:namedview>
  <metadata
     id="metadata3873">
    <rdf:RDF>
      <cc:Work
         rdf:about="">
        <dc:format>image/svg+xml</dc:format>
        <dc:type
           rdf:resource="http://purl.org/dc/dcmitype/StillImage" />
        <dc:title></dc:title>
      </cc:Work>
    </rdf:RDF>
  </metadata>
  <g
     inkscape:label="Calque 1"
     inkscape:groupmode="layer"
     id="layer1"
     transform="translate(0,-161.26876)">
    <path
       inkscape:connector-curvature="0"
       style="fill:#29abe2;stroke-width:0.26458332"
       d="M 29.225119,171.93778 H 13.374196 c -1.352815,0 -2.345796,-1.27159 -2.017448,-2.58392 l 0.777081,-3.10886 c 0.408252,-1.63301 1.875367,-2.77839 3.558382,-2.77839 H 26.90684 c 1.683279,0 3.150394,1.14565 3.558381,2.77839 l 0.777081,3.10886 c 0.328348,1.31233 -0.664368,2.58392 -2.017183,2.58392 z"
       id="path4011" />
    <path
       inkscape:connector-curvature="0"
       style="fill:#f7931e;stroke-width:0.26458332"
       d="M 31.852431,294.76979 H 10.746619 c -4.6984684,0 -8.5074083,-3.80867 -8.5074083,-8.50741 v -54.69017 c 0,-9.98828 2.1674658,-19.85777 6.3531714,-28.92663 l 2.65e-4,-2.6e-4 c 4.1857069,-9.06886 6.3531739,-18.93808 6.3531739,-28.92637 v -1.78144 h 12.706615 v 1.78118 c 0,9.98828 2.167731,19.85777 6.353439,28.92689 v 0 c 4.185709,9.06886 6.35344,18.93835 6.35344,28.9269 v 54.69017 c 2.64e-4,4.69847 -3.808413,8.50714 -8.506884,8.50714 z"
       id="path4013" />
    <path
       inkscape:connector-curvature="0"
       style="fill:#fabe78;stroke-width:0.26458332"
       d="m 33.870938,202.64558 c -4.185709,-9.06886 -6.245225,-18.93834 -6.245225,-28.92689 v -1.67005 h -6.384132 v 1.67005 c 0,9.98855 2.198423,19.85803 6.384132,28.92689 4.185708,9.06886 6.384131,18.93835 6.384131,28.9269 v 54.6899 c 0,4.69847 -3.812117,8.4709 -8.510852,8.4709 h 6.353439 c 4.698471,0 8.263732,-3.77243 8.263732,-8.4709 v -54.6899 c 0,-9.98829 -2.059517,-19.85777 -6.245225,-28.9269 z"
       id="path4015" />
    <path
       inkscape:connector-curvature="0"
       style="fill:#aa5e04;stroke-width:0.26458332"
       d="M 8.6122261,202.64558 C 12.797934,193.57672 14.85745,183.70724 14.85745,173.71869 v -1.67005 h 6.384131 v 1.67005 c 0,9.98855 -2.059516,19.85803 -6.245225,28.92689 -4.185708,9.06886 -6.2452239,18.93835 -6.2452239,28.9269 v 54.6899 c 0,4.69847 3.6501909,8.4709 8.3489269,8.4709 h -6.35344 c -4.6984684,0 -8.3793503,-3.77243 -8.3793503,-8.4709 v -54.6899 c -2.64e-4,-9.98829 2.0592508,-19.85777 6.2449574,-28.9269 z"
       id="path4017" />
    <g
       transform="matrix(0.26458333,0,0,0.26458333,-46.433279,161.38487)"
       id="g4023">
      <polygon
         style="fill:#29abe2"
         points="223.981,95.914 288.015,95.914 296.019,135.935 215.976,135.935 "
         id="polygon4019" />
      <rect
         x="183.963"
         y="416.082"
         style="fill:#29abe2"
         width="144.07899"
         height="24.013"
         id="rect4021" />
    </g>
    <rect
       x="2.2402768"
       y="241.82536"
       style="fill:#ffffff;stroke-width:0.26458332"
       width="38.120899"
       height="29.649736"
       id="rect4025" />
    <circle
       style="fill:#c7b299;stroke-width:0.26458332"
       cx="21.300838"
       cy="241.82536"
       r="10.589154"
       id="circle4027" />
    <g
       transform="matrix(0.26458333,0,0,0.26458333,-46.433279,161.38487)"
       id="g4035">
      <rect
         x="183.963"
         y="280.01801"
         style="fill:#29abe2"
         width="32.016998"
         height="24.013"
         id="rect4029" />
      <rect
         x="296.02499"
         y="280.01801"
         style="fill:#29abe2"
         width="32.016998"
         height="24.013"
         id="rect4031" />
      <circle
         style="fill:#29abe2"
         cx="256.00299"
         cy="304.03101"
         r="16.009001"
         id="circle4033" />
    </g>
    <path
       inkscape:connector-curvature="0"
       d="m 21.299525,248.14227 c -3.483504,0 -6.317456,-2.83395 -6.317456,-6.31745 0,-3.48351 2.833952,-6.31746 6.317456,-6.31746 3.483504,0 6.317456,2.83395 6.317456,6.31746 0,3.4835 -2.834216,6.31745 -6.317456,6.31745 z m 0,-8.47116 c -1.187714,0 -2.153973,0.96626 -2.153973,2.15397 0,1.18772 0.966259,2.15398 2.153973,2.15398 1.187715,0 2.153973,-0.96626 2.153973,-2.15398 0,-1.18771 -0.966523,-2.15397 -2.153973,-2.15397 z"
       id="path4037"
       style="stroke-width:0.26458332" />
    <rect
       x="8.7519321"
       y="263.09015"
       width="25.258448"
       height="4.1634831"
       id="rect4039"
       style="stroke-width:0.26458332" />
    <rect
       x="12.637861"
       y="256.70584"
       width="17.209028"
       height="4.1634831"
       id="rect4041"
       style="stroke-width:0.26458332" />
    <circle
       style="fill:#c7b299;stroke-width:0.26458332"
       cx="21.300838"
       cy="197.35101"
       r="4.2357149"
       id="circle4043" />
    <path
       inkscape:connector-curvature="0"
       d="m 35.896323,201.77352 c -3.993621,-8.65347 -6.118754,-18.25546 -6.157912,-27.78681 1.090348,-0.13335 2.079095,-0.68686 2.766483,-1.56739 0.794015,-1.01706 1.069975,-2.31855 0.757237,-3.57029 l -0.777081,-3.10885 c -0.641085,-2.56435 -2.935023,-4.35531 -5.57821,-4.35531 H 15.692211 c -2.643188,0 -4.937125,1.79096 -5.577947,4.35504 l -0.7770802,3.10886 c -0.313002,1.252 -0.03704,2.55296 0.7572372,3.57028 0.687652,0.88054 1.676135,1.43431 2.766748,1.56739 -0.03916,9.53162 -2.164556,19.13414 -6.158176,27.78681 C 2.4212437,211.05034 0.158,221.3548 0.158,231.57195 v 54.69017 c 0,5.83882 4.7503262,10.58889 10.588884,10.58889 h 21.105812 c 5.838825,0 10.58889,-4.75007 10.58889,-10.58889 v -54.68964 c -2.65e-4,-10.21768 -2.263511,-20.52214 -6.545263,-29.79896 z m -8.601339,-6.40927 c -0.835025,-2.51248 -3.206221,-4.3307 -5.995459,-4.3307 -2.789237,0 -5.160433,1.81769 -5.995458,4.3307 h -1.665023 c 0.668602,-2.0992 1.244865,-4.23016 1.718204,-6.38413 h 11.884819 c 0.473339,2.15397 1.049602,4.2844 1.718204,6.38413 z m -3.84175,1.98676 c 0,1.18745 -0.966259,2.15397 -2.153973,2.15397 -1.187715,0 -2.153973,-0.96626 -2.153973,-2.15397 0,-1.18772 0.966258,-2.15398 2.153973,-2.15398 1.187714,2.7e-4 2.153973,0.96679 2.153973,2.15398 z m 2.118783,-23.33123 c 0.01588,3.60627 0.318029,7.22128 0.886089,10.79712 H 16.141209 c 0.567795,-3.57611 0.870479,-7.19085 0.886354,-10.79712 z m -9.879806,-8.47143 H 26.90684 c 0.729191,0 1.362339,0.49398 1.539081,1.20148 l 0.78449,3.10568 c 0,0 -0.0016,2.6e-4 -0.005,2.6e-4 H 13.376842 l 0.776552,-3.10594 c 0.176742,-0.7075 0.809625,-1.20148 1.538817,-1.20148 z m -5.209382,37.96956 c 0.604573,-1.30995 1.164167,-2.64239 1.687513,-3.98991 h 3.198283 c 0.888736,2.41432 3.212042,4.14073 5.930636,4.14073 2.718858,0 5.0419,-1.72641 5.930635,-4.14073 h 3.198019 c 0.52361,1.34778 1.082939,2.68023 1.687512,3.99018 4.031192,8.73389 6.161617,18.43511 6.161617,28.05456 v 1.81822 h -7.533217 c -2.321718,-2.59768 -5.695156,-4.23677 -9.44536,-4.23677 -3.750204,0 -7.123377,1.63909 -9.445361,4.23677 H 4.3198925 v -1.81875 c 0.0013,-9.61892 2.1320118,-19.32014 6.1629365,-28.0543 z m -6.1616135,65.95666 v -25.536 h 4.4873316 c 1.0093844,5.98382 6.2245869,10.55714 12.4909779,10.55714 6.266392,0 11.481594,-4.57385 12.490979,-10.55714 h 4.487334 v 25.536 z m 33.9566225,4.16348 v 1.9431 H 4.3212155 v -1.9431 z M 8.7969051,239.77483 H 4.3209515 v -2.22065 h 5.050099 c -0.2558517,0.71305 -0.4489977,1.45547 -0.5741454,2.22065 z m 3.9952079,2.05025 c 0,-4.6908 3.81635,-8.50715 8.507148,-8.50715 4.690798,0 8.507148,3.81635 8.507148,8.50715 0,4.6908 -3.81635,8.50715 -8.507148,8.50715 -4.690798,0 -8.507148,-3.81635 -8.507148,-8.50715 z m 21.009768,-2.05025 c -0.125147,-0.76518 -0.318029,-1.50786 -0.57441,-2.22065 h 5.050102 v 2.22065 z m -1.94945,52.91322 H 10.746619 c -3.543034,0 -6.4254035,-2.88263 -6.4254035,-6.4254 V 279.7449 H 38.277838 v 6.51775 c 0,3.54277 -2.882636,6.4254 -6.425407,6.4254 z"
       id="path4045"
       style="stroke-width:0.26458332" />
    <g
       transform="matrix(0.26458333,0,0,0.26458333,-46.491279,161.33387)"
       id="g4047" />
    <g
       transform="matrix(0.26458333,0,0,0.26458333,-46.491279,161.33387)"
       id="g4049" />
    <g
       transform="matrix(0.26458333,0,0,0.26458333,-46.491279,161.33387)"
       id="g4051" />
    <g
       transform="matrix(0.26458333,0,0,0.26458333,-46.491279,161.33387)"
       id="g4053" />
    <g
       transform="matrix(0.26458333,0,0,0.26458333,-46.491279,161.33387)"
       id="g4055" />
    <g
       transform="matrix(0.26458333,0,0,0.26458333,-46.491279,161.33387)"
       id="g4057" />
    <g
       transform="matrix(0.26458333,0,0,0.26458333,-46.491279,161.33387)"
       id="g4059" />
    <g
       transform="matrix(0.26458333,0,0,0.26458333,-46.491279,161.33387)"
       id="g4061" />
    <g
       transform="matrix(0.26458333,0,0,0.26458333,-46.491279,161.33387)"
       id="g4063" />
    <g
       transform="matrix(0.26458333,0,0,0.26458333,-46.491279,161.33387)"
       id="g4065" />
    <g
       transform="matrix(0.26458333,0,0,0.26458333,-46.491279,161.33387)"
       id="g4067" />
    <g
       transform="matrix(0.26458333,0,0,0.26458333,-46.491279,161.33387)"
       id="g4069" />
    <g
       transform="matrix(0.26458333,0,0,0.26458333,-46.491279,161.33387)"
       id="g4071" />
    <g
       transform="matrix(0.26458333,0,0,0.26458333,-46.491279,161.33387)"
       id="g4073" />
    <g
       transform="matrix(0.26458333,0,0,0.26458333,-46.491279,161.33387)"
       id="g4075" />
  </g>
</svg>
