<?xml version="1.0" encoding="UTF-8" standalone="no"?>
<!-- Created with Inkscape (http://www.inkscape.org/) -->

<svg
   xmlns:dc="http://purl.org/dc/elements/1.1/"
   xmlns:cc="http://creativecommons.org/ns#"
   xmlns:rdf="http://www.w3.org/1999/02/22-rdf-syntax-ns#"
   xmlns:svg="http://www.w3.org/2000/svg"
   xmlns="http://www.w3.org/2000/svg"
   xmlns:sodipodi="http://sodipodi.sourceforge.net/DTD/sodipodi-0.dtd"
   xmlns:inkscape="http://www.inkscape.org/namespaces/inkscape"
   width="160"
   height="513"
   viewBox="0 0 42.333331 135.73124"
   version="1.1"
   id="svg3876"
   sodipodi:docname="beer-empty-160-513.svg"
   inkscape:version="0.92.3 (2405546, 2018-03-11)">
  <defs
     id="defs3870" />
  <sodipodi:namedview
     id="base"
     pagecolor="#ffffff"
     bordercolor="#666666"
     borderopacity="1.0"
     inkscape:pageopacity="0.0"
     inkscape:pageshadow="2"
     inkscape:zoom="0.98994949"
     inkscape:cx="195.89148"
     inkscape:cy="114.58409"
     inkscape:document-units="mm"
     inkscape:current-layer="layer1"
     showgrid="true"
     units="px"
     inkscape:window-width="1920"
     inkscape:window-height="1017"
     inkscape:window-x="-8"
     inkscape:window-y="-8"
     inkscape:window-maximized="1">
    <inkscape:grid
       type="xygrid"
       id="grid3936" />
  </sodipodi:namedview>
  <metadata
     id="metadata3873">
    <rdf:RDF>
      <cc:Work
         rdf:about="">
        <dc:format>image/svg+xml</dc:format>
        <dc:type
           rdf:resource="http://purl.org/dc/dcmitype/StillImage" />
        <dc:title></dc:title>
      </cc:Work>
    </rdf:RDF>
  </metadata>
  <g
     inkscape:label="Calque 1"
     inkscape:groupmode="layer"
     id="layer1"
     transform="translate(0,-161.26876)">
    <g
       transform="matrix(0.26458333,0,0,0.26458333,-46.433051,161.38463)"
       id="g3778">
      <g
         id="g3776">
        <path
           inkscape:connector-curvature="0"
           d="M 311.167,152.65 C 296.073,119.944 288.041,83.653 287.893,47.629 c 4.121,-0.504 7.858,-2.596 10.456,-5.924 3.001,-3.844 4.044,-8.763 2.862,-13.494 l -2.937,-11.75 C 295.851,6.769 287.181,0 277.191,0 h -42.386 c -9.99,0 -18.66,6.769 -21.082,16.46 l -2.937,11.75 c -1.183,4.732 -0.14,9.649 2.862,13.494 2.599,3.328 6.335,5.421 10.457,5.924 -0.148,36.025 -8.181,72.318 -23.275,105.021 -16.183,35.063 -24.737,74.009 -24.737,112.625 v 206.703 c 0,22.068 17.954,40.021 40.021,40.021 h 79.77 c 22.068,0 40.021,-17.953 40.021,-40.021 V 265.276 C 335.904,226.658 327.35,187.712 311.167,152.65 Z M 228.989,20.277 c 0.668,-2.674 3.06,-4.541 5.816,-4.541 h 42.386 c 2.756,0 5.149,1.867 5.817,4.541 l 2.965,11.738 c 0,0 -0.006,10e-4 -0.019,10e-4 h -59.9 z m 27.009,91.782 c -10.542,0 -19.504,6.87 -22.66,16.368 h -6.293 c 2.527,-7.934 4.705,-15.988 6.494,-24.129 h 44.919 c 1.789,8.141 3.967,16.193 6.494,24.129 h -6.293 c -3.156,-9.497 -12.118,-16.368 -22.661,-16.368 z m 8.14,23.876 c 0,4.488 -3.652,8.141 -8.141,8.141 -4.489,0 -8.141,-3.652 -8.141,-8.141 0,-4.489 3.652,-8.141 8.141,-8.141 4.489,0.001 8.141,3.654 8.141,8.141 z M 236.501,88.562 c 2.146,-13.516 3.29,-27.178 3.35,-40.808 h 32.295 c 0.06,13.63 1.202,27.293 3.349,40.808 z m -44.674,176.713 c 0.001,-36.356 8.054,-73.022 23.289,-106.033 2.285,-4.951 4.4,-9.987 6.378,-15.08 h 12.088 c 3.359,9.125 12.14,15.65 22.416,15.65 10.276,0 19.056,-6.525 22.415,-15.65 H 290.5 c 1.979,5.094 4.094,10.13 6.378,15.081 15.236,33.01 23.288,69.676 23.288,106.033 v 6.872 h -28.472 c -8.775,-9.818 -21.525,-16.013 -35.699,-16.013 -14.174,0 -26.923,6.195 -35.699,16.013 h -28.472 v -6.873 z m 128.34,22.61 v 8.393 h -16.916 c -0.473,-2.892 -1.202,-5.699 -2.171,-8.393 z m -32.017,16.141 c 0,17.729 -14.424,32.153 -32.153,32.153 -17.729,0 -32.153,-14.424 -32.153,-32.153 0,-17.729 14.424,-32.153 32.153,-32.153 17.729,0 32.153,14.424 32.153,32.153 z m -96.323,-16.141 h 19.087 c -0.966,2.694 -1.696,5.5 -2.169,8.393 h -16.917 v -8.393 z m 128.341,184.094 c 0,13.39 -10.895,24.285 -24.285,24.285 h -79.77 c -13.391,0 -24.285,-10.895 -24.285,-24.285 v -24.634 h 128.34 z m 0,-40.371 h -128.34 v -7.343 h 128.34 z m 10e-4,-23.08 H 191.828 v -96.515 h 16.96 c 3.815,22.616 23.526,39.901 47.21,39.901 23.684,0 43.395,-17.287 47.21,-39.901 h 16.96 v 96.515 z"
           id="path3774" />
      </g>
    </g>
    <g
       transform="matrix(0.26458333,0,0,0.26458333,-46.433051,161.38463)"
       id="g3784">
      <g
         id="g3782">
        <path
           inkscape:connector-curvature="0"
           d="m 255.997,280.149 c -13.166,0 -23.877,10.711 -23.877,23.877 0,13.166 10.711,23.877 23.877,23.877 13.166,0 23.877,-10.712 23.877,-23.877 0,-13.166 -10.711,-23.877 -23.877,-23.877 z m 10e-4,32.018 c -4.489,0 -8.141,-3.653 -8.141,-8.141 0,-4.488 3.652,-8.141 8.141,-8.141 4.489,0 8.141,3.652 8.141,8.141 0,4.489 -3.652,8.141 -8.141,8.141 z"
           id="path3780" />
      </g>
    </g>
    <g
       transform="matrix(0.26458333,0,0,0.26458333,-46.433051,161.38463)"
       id="g3790">
      <g
         id="g3788">
        <rect
           x="208.57401"
           y="384.401"
           width="95.464996"
           height="15.736"
           id="rect3786" />
      </g>
    </g>
    <g
       transform="matrix(0.26458333,0,0,0.26458333,-46.433051,161.38463)"
       id="g3796">
      <g
         id="g3794">
        <rect
           x="223.261"
           y="360.272"
           width="65.042"
           height="15.736"
           id="rect3792" />
      </g>
    </g>
    <g
       transform="matrix(0.26458333,0,0,0.26458333,-46.433051,161.38463)"
       id="g3798" />
    <g
       transform="matrix(0.26458333,0,0,0.26458333,-46.433051,161.38463)"
       id="g3800" />
    <g
       transform="matrix(0.26458333,0,0,0.26458333,-46.433051,161.38463)"
       id="g3802" />
    <g
       transform="matrix(0.26458333,0,0,0.26458333,-46.433051,161.38463)"
       id="g3804" />
    <g
       transform="matrix(0.26458333,0,0,0.26458333,-46.433051,161.38463)"
       id="g3806" />
    <g
       transform="matrix(0.26458333,0,0,0.26458333,-46.433051,161.38463)"
       id="g3808" />
    <g
       transform="matrix(0.26458333,0,0,0.26458333,-46.433051,161.38463)"
       id="g3810" />
    <g
       transform="matrix(0.26458333,0,0,0.26458333,-46.433051,161.38463)"
       id="g3812" />
    <g
       transform="matrix(0.26458333,0,0,0.26458333,-46.433051,161.38463)"
       id="g3814" />
    <g
       transform="matrix(0.26458333,0,0,0.26458333,-46.433051,161.38463)"
       id="g3816" />
    <g
       transform="matrix(0.26458333,0,0,0.26458333,-46.433051,161.38463)"
       id="g3818" />
    <g
       transform="matrix(0.26458333,0,0,0.26458333,-46.433051,161.38463)"
       id="g3820" />
    <g
       transform="matrix(0.26458333,0,0,0.26458333,-46.433051,161.38463)"
       id="g3822" />
    <g
       transform="matrix(0.26458333,0,0,0.26458333,-46.433051,161.38463)"
       id="g3824" />
    <g
       transform="matrix(0.26458333,0,0,0.26458333,-46.433051,161.38463)"
       id="g3826" />
  </g>
</svg>
