<?xml version="1.0" encoding="UTF-8" standalone="no"?>
<!-- Created with Inkscape (http://www.inkscape.org/) -->

<svg
   xmlns:dc="http://purl.org/dc/elements/1.1/"
   xmlns:cc="http://creativecommons.org/ns#"
   xmlns:rdf="http://www.w3.org/1999/02/22-rdf-syntax-ns#"
   xmlns:svg="http://www.w3.org/2000/svg"
   xmlns="http://www.w3.org/2000/svg"
   xmlns:sodipodi="http://sodipodi.sourceforge.net/DTD/sodipodi-0.dtd"
   xmlns:inkscape="http://www.inkscape.org/namespaces/inkscape"
   width="14.107mm"
   height="5.7649999mm"
   viewBox="0 0 14.107 5.7649999"
   version="1.1"
   id="svg8"
   inkscape:version="0.92.3 (2405546, 2018-03-11)"
   sodipodi:docname="dessin.svg">
  <defs
     id="defs2" />
  <sodipodi:namedview
     id="base"
     pagecolor="#ffffff"
     bordercolor="#666666"
     borderopacity="1.0"
     inkscape:pageopacity="0.0"
     inkscape:pageshadow="2"
     inkscape:zoom="11.2"
     inkscape:cx="32.651943"
     inkscape:cy="24.252816"
     inkscape:document-units="mm"
     inkscape:current-layer="g4535"
     showgrid="false"
     showguides="false"
     inkscape:window-width="1920"
     inkscape:window-height="1017"
     inkscape:window-x="-8"
     inkscape:window-y="-8"
     inkscape:window-maximized="1" />
  <metadata
     id="metadata5">
    <rdf:RDF>
      <cc:Work
         rdf:about="">
        <dc:format>image/svg+xml</dc:format>
        <dc:type
           rdf:resource="http://purl.org/dc/dcmitype/StillImage" />
        <dc:title></dc:title>
      </cc:Work>
    </rdf:RDF>
  </metadata>
  <g
     inkscape:label="Calque 1"
     inkscape:groupmode="layer"
     id="layer1"
     transform="translate(0,-291.235)">
    <g
       id="g4535"
       transform="matrix(0.26458333,0,0,0.26458333,62.727991,232.9535)">
      <path
         id="path4518"
         style="opacity:1;fill:#000000;fill-opacity:1;stroke:none;stroke-width:1.322914;stroke-linecap:round;stroke-linejoin:round;stroke-miterlimit:4;stroke-dasharray:none;stroke-dashoffset:0;stroke-opacity:1;paint-order:normal"
         d="m -192.34192,220.27664 a 1.85208,1.85208 0 0 0 -1.8521,1.85156 1.85208,1.85208 0 0 0 1.8521,1.85209 1.85208,1.85208 0 0 0 1.8521,-1.85209 1.85208,1.85208 0 0 0 -1.8521,-1.85156 z m -4.8152,3.43287 c -0.091,0 -0.1831,0.0177 -0.2646,0.0527 -1.15235,0.477 -2.64584,2.64584 -2.64584,2.64584 v 0.52916 l 0.97256,0.97256 -0.99529,0.99584 a 0.793828,0.793828 0 0 0 0.16587,1.2479 l 3.836,2.2149 v 5.6291 a 0.794051,0.794051 0 0 0 1.588,0 v -6.0859 a 0.793828,0.793828 0 0 0 -0.3964,-0.6883 l -2.4107,-1.3917 3.0091,-3.00912 1.6805,1.68102 a 0.793828,0.793828 0 0 0 0.5607,0.2321 h 3.3771 a 0.793828,0.793828 0 1 0 0,-1.58602 h -3.0489 l -2.7399,-2.74245 a 0.793828,0.793828 0 0 0 -0.5726,-0.23254 0.793828,0.793828 0 0 0 -0.5509,0.23254 l -0.2816,0.28165 c -0.2702,-0.33684 -0.667,-0.78074 -1.0185,-0.92657 -0.0815,-0.035 -0.1731,-0.0527 -0.2646,-0.0527 z m -4.66174,8.3008 c -2.76873,0 -5.02731,2.2591 -5.02709,5.0281 -2.2e-4,2.768 2.25836,5.0271 5.02709,5.0271 2.76873,0 5.02574,-2.2591 5.02554,-5.0271 2e-4,-2.769 -2.25681,-5.0281 -5.02554,-5.0281 z m 13.02914,0 c -2.7687,0 -5.0273,2.2591 -5.0271,5.0281 -2e-4,2.768 2.2584,5.0271 5.0271,5.0271 2.7687,0 5.0257,-2.2591 5.0255,-5.0271 2e-4,-2.769 -2.2568,-5.0281 -5.0255,-5.0281 z m -13.02914,1.3229 c 2.05372,0 3.70334,1.6512 3.70314,3.7052 2e-4,2.053 -1.64942,3.7052 -3.70314,3.7052 -2.05372,0 -3.70541,-1.6522 -3.70519,-3.7052 -2.2e-4,-2.054 1.65147,-3.7052 3.70519,-3.7052 z m 13.02914,0 c 2.0537,0 3.7033,1.6512 3.7031,3.7052 2e-4,2.053 -1.6494,3.7052 -3.7031,3.7052 -2.0537,0 -3.7049,-1.6522 -3.7047,-3.7052 -2e-4,-2.054 1.651,-3.7052 3.7047,-3.7052 z"
         inkscape:connector-curvature="0" />
      <path
         style="fill:none;stroke:#000000;stroke-width:1.12063098px;stroke-linecap:butt;stroke-linejoin:miter;stroke-opacity:1"
         d="m -237.08217,241.49849 h 48.21428 v 0"
         id="path4545"
         inkscape:connector-curvature="0" />
    </g>
  </g>
</svg>
